#!OML:ASF F:\VICON\USERDATA\INSTALL\rory3\rory3.ASF
:FULLY-SPECIFIED
:DEGREES
1176
root -15.1434 17.8185 14.361 0.615409 110.178 -3.47269
lowerback 8.49657 -2.54754 -1.99108
upperback 1.34606 -3.35012 3.54371
thorax -3.03111 -1.59782 5.16828
lowerneck -3.28231 -7.99718 -12.0887
upperneck 42.9935 -9.33717 7.54828
head 17.4847 -3.89671 4.55649
rclavicle -2.60408e-014 -1.59028e-014
rhumerus -38.4786 -25.0411 -68.1301
rradius 26.3594
rwrist 7.77793
rhand -14.6622 5.73968
rfingers 7.12502
rthumb 11.4905 -23.9254
lclavicle -2.60408e-014 -1.59028e-014
lhumerus -34.3053 -0.0149752 89.5279
lradius 48.0118
lwrist -2.08445
lhand -21.1193 26.0541
lfingers 7.12502
lthumb 5.25917 55.9688
rfemur -10.6334 -6.7244 21.1675
rtibia 32.1991
rfoot -20.3542 -15.4776
rtoes 8.3553
lfemur -11.5885 10.5534 -23.5504
ltibia 26.2796
lfoot -12.7692 18.2017
ltoes -1.38892
1177
root -15.1506 17.849 14.3257 0.0508608 111.078 -4.06795
lowerback 8.3879 -2.61624 -2.16438
upperback 1.31069 -3.45833 3.54534
thorax -2.98575 -1.65153 5.2737
lowerneck -3.36582 -7.87059 -12.3084
upperneck 43.0092 -9.10714 7.66974
head 17.5072 -3.81109 4.69527
rclavicle -7.95139e-015 1.27222e-014
rhumerus -38.4612 -24.6561 -68.2682
rradius 26.3094
rwrist 7.76722
rhand -14.8273 5.57493
rfingers 7.12502
rthumb 11.3313 -24.099
lclavicle -7.95139e-015 1.27222e-014
lhumerus -34.0826 -0.0630469 89.6841
lradius 48.5746
lwrist -1.59211
lhand -21.0934 26.5494
lfingers 7.12502
lthumb 5.2842 56.4635
rfemur -10.7061 -6.48328 20.781
rtibia 32.5581
rfoot -20.9498 -15.7325
rtoes 12.0109
lfemur -11.4101 9.57802 -23.8981
ltibia 25.8737
lfoot -12.6092 18.054
ltoes -1.12962
1178
root -15.1666 17.8505 14.3052 -0.607251 112.107 -4.78418
lowerback 8.32664 -2.59153 -2.47165
upperback 1.31687 -3.45757 3.48538
thorax -2.93046 -1.65112 5.3808
lowerneck -3.49686 -7.87685 -12.2859
upperneck 42.9129 -9.10866 7.72689
head 17.4849 -3.79021 4.71228
rclavicle -4.92986e-014 5.64548e-014
rhumerus -38.5241 -24.9195 -68.2551
rradius 26.2296
rwrist 8.07087
rhand -14.9817 5.55777
rfingers 7.12502
rthumb 11.1824 -24.1242
lclavicle -4.92986e-014 5.64548e-014
lhumerus -33.764 -0.44059 89.8534
lradius 49.046
lwrist -1.32935
lhand -21.2535 26.5947
lfingers 7.12502
lthumb 5.12958 56.5126
rfemur -10.7816 -6.78687 20.4581
rtibia 32.9256
rfoot -21.101 -16.4097
rtoes 12.1308
lfemur -11.3174 8.86139 -24.2728
ltibia 25.5336
lfoot -12.3422 17.6942
ltoes -1.19283
1179
root -15.1856 17.7989 14.286 -1.59495 113.067 -5.76037
lowerback 8.36732 -2.51969 -2.90347
upperback 1.33287 -3.40883 3.37097
thorax -2.92305 -1.62516 5.5027
lowerneck -3.55094 -7.88782 -12.2021
upperneck 42.7129 -9.13747 7.76276
head 17.3771 -3.77629 4.69724
rclavicle -8.64713e-014 -1.74931e-014
rhumerus -38.6671 -25.3678 -68.1446
rradius 26.1334
rwrist 8.43761
rhand -14.9373 5.71832
rfingers 7.12502
rthumb 11.2252 -23.9614
lclavicle -8.64713e-014 -1.74931e-014
lhumerus -33.6058 -0.898767 90.0245
lradius 49.6166
lwrist -1.05834
lhand -20.958 26.489
lfingers 7.12502
lthumb 5.41487 56.3998
rfemur -10.9639 -7.31726 20.0176
rtibia 33.1982
rfoot -20.0162 -18.0187
rtoes 6.20894
lfemur -11.2346 8.26912 -24.8094
ltibia 25.4106
lfoot -12.0903 17.1539
ltoes -1.37229
1180
root -15.2001 17.8003 14.2555 -2.29517 113.952 -6.36091
lowerback 8.46027 -2.47057 -3.12569
upperback 1.35685 -3.36915 3.28125
thorax -2.9467 -1.60371 5.53529
lowerneck -3.61804 -7.826 -12.1612
upperneck 42.5338 -9.04892 7.81075
head 17.2709 -3.719 4.71623
rclavicle 2.56432e-014 -2.14687e-014
rhumerus -38.7243 -25.5931 -68.1028
rradius 25.9806
rwrist 8.74061
rhand -14.917 6.05976
rfingers 7.12502
rthumb 11.2448 -23.6189
lclavicle 2.56432e-014 -2.14687e-014
lhumerus -33.5172 -1.13117 90.1332
lradius 50.184
lwrist -0.762157
lhand -20.6881 26.2305
lfingers 7.12502
lthumb 5.67552 56.1345
rfemur -10.8455 -7.64719 19.5917
rtibia 33.4968
rfoot -20.2445 -18.4048
rtoes 6.61813
lfemur -11.0925 7.60592 -25.2549
ltibia 25.4501
lfoot -11.8388 16.804
ltoes -2.26335
1181
root -15.2214 17.7959 14.2307 -2.47202 114.846 -6.43422
lowerback 8.6369 -2.39022 -3.15316
upperback 1.35151 -3.26793 3.24253
thorax -3.06307 -1.54911 5.51089
lowerneck -3.73851 -7.79587 -12.0463
upperneck 42.4493 -8.97632 7.78206
head 17.2263 -3.66083 4.68891
rclavicle 2.22639e-014 -1.19271e-014
rhumerus -38.7701 -25.6604 -68.1606
rradius 25.8852
rwrist 8.68016
rhand -14.9664 6.08199
rfingers 7.12502
rthumb 11.1972 -23.5992
lclavicle 2.22639e-014 -1.19271e-014
lhumerus -33.4507 -1.43712 90.2577
lradius 50.7862
lwrist -0.454744
lhand -21.0993 26.1894
lfingers 7.12502
lthumb 5.27844 56.1037
rfemur -10.8681 -7.88103 19.437
rtibia 33.7837
rfoot -20.3296 -19.0229
rtoes 7.62554
lfemur -11.0412 6.81227 -25.4678
ltibia 25.5187
lfoot -11.665 16.6679
ltoes -2.30904
1182
root -15.2418 17.7849 14.2081 -2.61862 115.7 -6.49173
lowerback 8.76961 -2.29304 -3.17695
upperback 1.36316 -3.14264 3.21519
thorax -3.13959 -1.48382 5.49022
lowerneck -3.90414 -7.75995 -11.9703
upperneck 42.4268 -8.85392 7.69328
head 17.2217 -3.59334 4.65166
rclavicle 2.36554e-014 7.23576e-014
rhumerus -38.76 -25.4102 -68.4311
rradius 25.9444
rwrist 8.18487
rhand -15.1587 5.61878
rfingers 7.12502
rthumb 11.0117 -24.0724
lclavicle 2.36554e-014 7.23576e-014
lhumerus -33.435 -1.79056 90.3795
lradius 51.4873
lwrist -0.0558728
lhand -21.4265 26.2187
lfingers 7.12502
lthumb 4.9625 56.1406
rfemur -11.0483 -8.07751 19.298
rtibia 34.2357
rfoot -20.3975 -19.7548
rtoes 8.59603
lfemur -10.8585 6.15426 -25.6573
ltibia 25.3102
lfoot -11.5828 16.3234
ltoes -1.5735
1183
root -15.2564 17.7745 14.1815 -3.12558 116.469 -7.01479
lowerback 8.73115 -2.18871 -3.3497
upperback 1.37161 -3.02561 3.11306
thorax -3.11951 -1.42582 5.46646
lowerneck -3.9417 -7.64441 -12.0966
upperneck 42.3219 -8.66304 7.81474
head 17.1571 -3.50847 4.75914
rclavicle 4.65156e-014 3.81667e-014
rhumerus -38.8072 -25.1249 -68.6856
rradius 26.0707
rwrist 7.96243
rhand -15.2075 5.34271
rfingers 7.12502
rthumb 10.9646 -24.351
lclavicle 4.65156e-014 3.81667e-014
lhumerus -33.4963 -2.09085 90.4495
lradius 52.2037
lwrist 0.280982
lhand -21.3244 26.3827
lfingers 7.12502
lthumb 5.06117 56.3022
rfemur -11.1981 -8.10923 18.9157
rtibia 34.6739
rfoot -20.4846 -20.4016
rtoes 9.42516
lfemur -10.7471 5.90657 -26.0764
ltibia 25.1465
lfoot -11.5151 15.6857
ltoes -1.7776
1184
root -15.269 17.7674 14.1496 -3.45801 117.218 -7.4082
lowerback 8.5879 -2.05902 -3.38926
upperback 1.37745 -2.86297 2.96119
thorax -3.05889 -1.34819 5.3047
lowerneck -3.99241 -7.61238 -12.139
upperneck 42.1566 -8.63009 7.94427
head 17.0794 -3.47688 4.82431
rclavicle 4.81059e-014 2.06736e-014
rhumerus -38.9897 -25.4321 -68.6451
rradius 26.122
rwrist 8.38792
rhand -15.0118 5.51294
rfingers 7.12502
rthumb 11.1533 -24.1706
lclavicle 4.81059e-014 2.06736e-014
lhumerus -33.5211 -2.55411 90.5059
lradius 52.801
lwrist 0.556106
lhand -20.9796 26.2849
lfingers 7.12502
lthumb 5.39402 56.1963
rfemur -11.3614 -8.07427 18.5773
rtibia 35.1778
rfoot -20.2589 -21.0901
rtoes 8.38757
lfemur -10.6241 5.79041 -26.453
ltibia 24.8939
lfoot -11.2398 15.0689
ltoes -2.55788
1185
root -15.2786 17.7582 14.1071 -3.85941 117.818 -7.77383
lowerback 8.43879 -1.86766 -3.31993
upperback 1.44648 -2.60826 2.75931
thorax -2.94632 -1.22769 5.01792
lowerneck -4.16225 -7.66588 -12.0842
upperneck 42.0883 -8.70115 7.98978
head 17.0929 -3.47994 4.81995
rclavicle 3.49861e-014 -7.95139e-016
rhumerus -39.0678 -25.8424 -68.6615
rradius 26.0843
rwrist 8.67501
rhand -14.8859 5.74151
rfingers 7.12502
rthumb 11.2748 -23.9355
lclavicle 3.49861e-014 -7.95139e-016
lhumerus -33.5559 -3.08632 90.5391
lradius 53.3967
lwrist 0.619914
lhand -20.4609 25.8321
lfingers 7.12502
lthumb 5.89486 55.7301
rfemur -11.5045 -8.3324 18.1835
rtibia 35.7512
rfoot -19.4749 -21.7273
rtoes 4.75749
lfemur -10.3096 5.51662 -26.839
ltibia 24.5967
lfoot -11.0358 14.7799
ltoes -3.31956
1186
root -15.2892 17.7579 14.0726 -4.23662 118.418 -8.07878
lowerback 8.38984 -1.67011 -3.41278
upperback 1.49196 -2.35526 2.69038
thorax -2.89867 -1.10314 4.96966
lowerneck -4.29003 -7.63716 -12.1298
upperneck 42.067 -8.59577 7.98067
head 17.0992 -3.42905 4.84129
rclavicle -3.43897e-014 2.38542e-015
rhumerus -39.0168 -25.5327 -68.898
rradius 26.1447
rwrist 8.32523
rhand -15.0868 5.64773
rfingers 7.12502
rthumb 11.081 -24.0397
lclavicle -3.43897e-014 2.38542e-015
lhumerus -33.648 -3.39516 90.6668
lradius 54.0022
lwrist 0.591458
lhand -20.3923 25.6251
lfingers 7.12502
lthumb 5.96106 55.5212
rfemur -11.5462 -8.3552 17.749
rtibia 36.373
rfoot -20.043 -21.4934
rtoes 7.15453
lfemur -9.99685 5.51833 -27.1577
ltibia 24.2922
lfoot -11.0252 14.2097
ltoes -4.51348
1187
root -15.3032 17.7536 14.0546 -4.31624 119.138 -8.15505
lowerback 8.361 -1.51922 -3.6136
upperback 1.51455 -2.16898 2.73838
thorax -2.86986 -1.00929 5.11414
lowerneck -4.44837 -7.51999 -12.0232
upperneck 41.9735 -8.29058 7.69683
head 17.006 -3.30607 4.72993
rclavicle 7.7526e-015 2.38542e-015
rhumerus -38.8325 -25.1612 -69.1182
rradius 26.1385
rwrist 8.23157
rhand -15.4154 5.61642
rfingers 7.12502
rthumb 10.7641 -24.0878
lclavicle 7.7526e-015 2.38542e-015
lhumerus -33.6479 -3.75175 90.8031
lradius 54.5567
lwrist 0.840087
lhand -20.3901 25.736
lfingers 7.12502
lthumb 5.96321 55.6321
rfemur -11.7448 -8.38446 17.5558
rtibia 37.0412
rfoot -20.3369 -21.697
rtoes 8.7279
lfemur -9.84946 5.75974 -27.2971
ltibia 23.9567
lfoot -11.232 13.1296
ltoes -3.9643
1188
root -15.3145 17.7427 14.0327 -4.81282 119.81 -8.53654
lowerback 8.45696 -1.38287 -3.83094
upperback 1.56772 -2.01214 2.64572
thorax -2.88135 -0.930021 5.12725
lowerneck -4.59808 -7.37566 -11.7018
upperneck 41.9147 -7.89013 7.15412
head 16.8856 -3.14103 4.47612
rclavicle -3.29983e-014 -3.10104e-014
rhumerus -38.5971 -24.8615 -69.4558
rradius 26.0206
rwrist 8.20304
rhand -15.5197 5.63999
rfingers 7.12502
rthumb 10.6635 -24.0694
lclavicle -3.29983e-014 -3.10104e-014
lhumerus -33.6611 -4.07 90.8043
lradius 54.9742
lwrist 1.21164
lhand -20.2513 25.63
lfingers 7.12502
lthumb 6.09723 55.5222
rfemur -11.7933 -8.39889 17.1479
rtibia 37.7717
rfoot -20.4108 -21.9483
rtoes 9.32513
lfemur -9.48101 5.88912 -27.5883
ltibia 23.577
lfoot -11.3732 12.1486
ltoes -2.42751
